<svg fill="none" height="267" viewBox="0 0 400 267" width="400" xmlns="http://www.w3.org/2000/svg" xmlns:xlink="http://www.w3.org/1999/xlink"><linearGradient id="a" gradientTransform="matrix(231.657 .446186 -.772948 401.311 .386474 -144.567)" gradientUnits="userSpaceOnUse" x2="1"><stop offset="0" stop-color="#96b0bb"/><stop offset=".520185" stop-color="#96b0bb"/><stop offset=".624196" stop-color="#77919d"/></linearGradient><linearGradient id="b"><stop offset="0" stop-color="#89a3af"/><stop offset="1" stop-color="#adbdc5"/></linearGradient><linearGradient id="c" gradientTransform="matrix(-128.557 140.923 -281.357 -274.516 271.828 149.177)" gradientUnits="userSpaceOnUse" x2="1" xlink:href="#b"/><linearGradient id="d" gradientTransform="matrix(152.597 -3.11174 5.39002 264.321 -2.69501 -85.0008)" gradientUnits="userSpaceOnUse" x2="1"><stop offset="0" stop-color="#cdd8dd"/><stop offset=".0662983" stop-color="#d9e3e8"/><stop offset=".276243" stop-color="#d9e3e8"/><stop offset=".441989" stop-color="#b4c3ca"/></linearGradient><linearGradient id="e"><stop offset="0" stop-color="#e4eaed"/><stop offset="1" stop-color="#fff"/></linearGradient><linearGradient id="f" gradientTransform="matrix(.19896 66.8334 -117.526 .350916 119.274 1.83229)" gradientUnits="userSpaceOnUse" x2="1" xlink:href="#e"/><linearGradient id="g" gradientTransform="matrix(-159.434 1.5077 -2.61159 -276.166 160.74 175.975)" gradientUnits="userSpaceOnUse" x2="1"><stop offset="0" stop-color="#c8d5dc"/><stop offset=".54635" stop-color="#c3d1d7"/><stop offset=".669305" stop-color="#d9e3e8"/><stop offset="1" stop-color="#d0dadf"/></linearGradient><linearGradient id="h" gradientTransform="matrix(0 76.7357 -121.419 0 121.419 0)" gradientUnits="userSpaceOnUse" x2="1" xlink:href="#e"/><linearGradient id="i" gradientTransform="matrix(162.352 .446186 -.541706 401.311 .270969 -189.564)" gradientUnits="userSpaceOnUse" x2="1"><stop offset="0" stop-color="#96b0bb"/><stop offset=".401946" stop-color="#96b0bb"/><stop offset=".48555" stop-color="#77919d"/></linearGradient><linearGradient id="j" gradientTransform="matrix(-108.377 78.802 -237.19 -153.505 229.157 83.4177)" gradientUnits="userSpaceOnUse" x2="1" xlink:href="#b"/><linearGradient id="k" gradientTransform="matrix(-80.6109 104.571 -83.4282 -64.3124 128.216 36.0091)" gradientUnits="userSpaceOnUse" x2="1"><stop offset=".466462" stop-color="#d7e4eb"/><stop offset=".631912" stop-color="#e4ebee"/><stop offset=".840981" stop-color="#d7e4eb"/></linearGradient><linearGradient id="l" gradientTransform="matrix(.0067048 77.1674998 -93.69679976 .00552199 94.4203 -.869222)" gradientUnits="userSpaceOnUse" x2="1"><stop offset="0" stop-color="#fff"/><stop offset="1" stop-color="#f7fbfc"/></linearGradient><path clip-rule="evenodd" d="m143.284 130.41c-7.653 4.418-20.061 4.419-27.714.001l-109.81878-63.3928c-3.5813-2.0673-5.486755-4.7358-5.7163689-7.4428l-.0348511-.0023v-4.1776l1.00098.0657c.92907-1.6238 2.51226-3.1502 4.74963-4.4419l82.62789-47.70529c7.6527-4.41828 20.0605-4.41873 27.7135-.00104l109.819 63.39303c1.931 1.1147 3.375 2.4042 4.331 3.7802l1.415.0927v4.1776l-.006-.0004c-.022 2.8783-1.935 5.7526-5.739 7.9488z" fill="url(#a)" fill-rule="evenodd" transform="translate(8.23187 132.442)"/><rect fill="url(#c)" height="158.803" rx="16" transform="matrix(.86602503 -.4999781 -.86606131 -.49995716 137.659 266.853)" width="127.411"/><path clip-rule="evenodd" d="m58.4319 86.4394c-3.8263 2.2091-10.0302 2.2094-13.8567.0005l-38.83528-22.4177c-3.74505-2.1618-5.6574691-4.981-5.73730305-7.8143l-.00073242.0002v-.0278c-.00250244-.1043-.00250244-.2086-.00006103-.3129l-.00128174-7.7508 7.98412824-1.3896 75.19343-43.41298c7.6527-4.41828 20.0609-4.41876 27.7129-.00104l33.945 19.59432 7.755-1.3497v7.9728c.092 1.5134-.863 3.0443-2.864 4.1997z" fill="url(#d)" fill-rule="evenodd" transform="translate(16.1172 129.833)"/><path d="m0 8c0-4.41828 3.58172-8 8-8h105.419c4.418 0 8 3.58172 8 8v44.8412c0 8.8365-7.164 16-16 16h-89.419c-8.83656 0-16-7.1635-16-16z" fill="url(#f)" transform="matrix(.86602503 -.4999781 -.86606131 -.49995716 67.6209 212.273)"/><path clip-rule="evenodd" d="m76.2559 88.7291c-7.6527 4.4183-20.0605 4.4188-27.7135.0011l-45.67245-26.3644c-1.85736-1.0722-2.813172-2.4677-2.86749333-3.8728l-.00231934.0003v-.0982c-.00018311-.0194-.00018311-.0388 0-.0581l-.00006104-8.0044 13.04242371-1.8396 81.1223-46.836c3.8263-2.209139 10.0302-2.209353 13.8562-.00052l45.673 26.36442c.291.1677.57.3395.839.5149l4.901-.6913v8.1476.0567.03c-.026 2.8757-1.939 5.7468-5.739 7.9411z" fill="url(#g)" fill-rule="evenodd" transform="translate(75.5753 163.733)"/><path d="m0 16c0-8.83656 7.16344-16 16-16h89.419c8.836 0 16 7.16344 16 16v52.7357c0 4.4183-3.582 8-8 8h-105.419c-4.41828 0-8-3.5817-8-8z" fill="url(#h)" transform="matrix(.86602503 -.4999781 -.86606131 -.49995716 137.975 252.462)"/><g clip-rule="evenodd" fill-rule="evenodd"><path d="m32.1691.621277c1.4349-.828369 3.7614-.828369 5.1963 0l35.4758 20.480223c1.435.8283 1.435 2.1714 0 2.9998-1.4349.8283-3.7613.8283-5.1963 0l-35.4758-20.48024c-1.4349-.82837-1.4349-2.17141 0-2.999783zm-15.5103 11.348623c-1.4349-.8284-3.7613-.8284-5.1962 0-1.435.8283-1.435 2.1714 0 2.9998l35.4758 20.4802c1.4349.8283 3.7613.8283 5.1963 0 1.4349-.8284 1.4349-2.1715 0-2.9998zm-10.38631 5.7274c-1.43494-.8284-3.76135-.8284-5.19629 0-1.434934.8284-1.434934 2.1714 0 2.9998l25.1556 14.5223c1.4349.8284 3.7614.8284 5.1962 0 1.4349-.8284 1.4349-2.1714 0-2.9998zm20.70651-11.34858c-1.4349-.82836-3.7613-.82836-5.1963 0-1.4349.82837-1.4349 2.17142 0 2.99979l25.1557 14.52229c1.4348.8284 3.7613.8284 5.1962 0s1.4349-2.1714 0-2.9998z" fill="#ccd9df" transform="translate(139.137 165.976)"/><path d="m63.3962.621277c1.435-.828369 3.7614-.828369 5.1963 0l35.4755 20.480223c1.435.8283 1.435 2.1714 0 2.9998-1.435.8283-3.761.8283-5.1959 0l-35.4759-20.48024c-1.4349-.82837-1.4349-2.17141 0-2.999783zm-20.7065 11.348623c1.4349-.8284 3.7613-.8284 5.1963 0l35.4758 20.4802c1.4349.8283 1.4349 2.1714 0 2.9998-1.4349.8283-3.7614.8283-5.1963 0l-35.4758-20.4802c-1.4349-.8284-1.4349-2.1715 0-2.9998zm-20.907 12.3612c1.4349-.8283 3.7614-.8283 5.1963 0l24.3989 14.0856c1.435.8283 1.435 2.1714 0 2.9998-1.4349.8283-3.7613.8283-5.1962 0l-24.399-14.0856c-1.4349-.8283-1.4349-2.1714 0-2.9998zm-20.70654 11.3486c1.43493-.8283 3.76135-.8283 5.19629 0l7.88125 4.5499c1.4348.8284 1.4348 2.1714 0 2.9998-1.435.8283-3.7614.8283-5.19632 0l-7.88122-4.5499c-1.434879-.8283-1.434879-2.1714 0-2.9998zm15.51644-5.6211c-1.4349-.8284-3.7613-.8284-5.1963 0-1.43483.8284-1.43483 2.1714 0 2.9998l31.9763 18.4599c1.4349.8284 3.7614.8284 5.1963 0s1.4349-2.1714 0-2.9998zm20.907-12.3613c-1.4349-.8284-3.7613-.8284-5.1963 0-1.4348.8284-1.4348 2.1714 0 2.9998l25.1556 14.5223c1.4349.8284 3.7614.8284 5.1962 0 1.435-.8284 1.435-2.1714 0-2.9998zm20.7066-11.34858c-1.435-.82836-3.7614-.82836-5.1963 0-1.4349.82837-1.4349 2.17142 0 2.99979l25.1556 14.52229c1.4348.8284 3.7614.8284 5.1962 0 1.4349-.8284 1.4349-2.1714 0-2.9998z" fill="#ccd9df" transform="translate(44.9817 129.905)"/><path d="m82.6458 85.4132c-7.6528 4.4183-20.0605 4.4188-27.7135.0011l-49.19242-28.3963c-4.00757-2.3134-5.916505-5.3796-5.7270514-8.4102v-3.6534l1.3474114-.0852c.95593-1.4023 2.41553-2.7166 4.37903-3.8502l65.30703-37.70499c7.6527-4.41828 20.0604-4.41873 27.7134-.00104l49.1923 28.39633c1.859 1.0729 3.266 2.3077 4.222 3.6259l1.507-.0953v4.0889c.175 3.0204-1.735 6.0737-5.728 8.3794z" fill="url(#i)" transform="translate(238.191 113.553)"/></g><rect fill="url(#j)" height="88.8" rx="16" transform="matrix(.86602503 -.4999781 -.86606131 -.49995716 306.98 202.966)" width="107.41"/><path clip-rule="evenodd" d="m6.27249 17.6973c-1.43494-.8284-3.76135-.8284-5.19629 0-1.434934.8284-1.434934 2.1714 0 2.9998l60.4746 34.912c1.4349.8284 3.7614.8284 5.1963 0s1.4349-2.1714 0-2.9998zm10.38631-5.7274c-1.4349-.8284-3.7613-.8284-5.1962 0-1.435.8283-1.435 2.1714 0 2.9998l42.9567 24.7989c1.435.8284 3.7614.8284 5.1963 0 1.435-.8283 1.435-2.1714 0-2.9997zm15.5103-11.348623c1.4349-.828369 3.7614-.828369 5.1963 0l35.4758 20.480223c1.435.8283 1.435 2.1714 0 2.9998-1.4349.8283-3.7613.8283-5.1963 0l-35.4758-20.48024c-1.4349-.82837-1.4349-2.17141 0-2.999783zm-5.1899 5.727443c-1.435-.82836-3.7614-.82836-5.1963 0-1.435.82837-1.435 2.17142 0 2.99979l48.6948 28.11149c1.4349.8284 3.7613.8284 5.1963 0 1.4349-.8283 1.4349-2.1714 0-2.9998z" fill="#7a8e98" fill-rule="evenodd" transform="matrix(1 0 0 -1 268.119 186.082)"/><circle cx="3.70706" cy="3.70706" fill="#ccd9df" r="3.70706" transform="matrix(.86604317 -.49996763 .86604317 .49996763 252.146 158.711)"/><circle cx="3.70706" cy="3.70706" fill="#ccd9df" r="3.70706" transform="matrix(.86604317 -.49996763 .86604317 .49996763 261.136 153.522)"/><circle cx="3.70706" cy="3.70706" fill="#ccd9df" r="3.70706" transform="matrix(.86604317 -.49996763 .86604317 .49996763 270.125 148.332)"/><path clip-rule="evenodd" d="m8.66443 38.7581c-4.78296 2.7615-8.66064577 9.4772-8.66101198 15l-.00341797 45.3183c-.00024414 2.6066.86352495 4.4826 2.27868995 5.4456l-.0033.004.07629.044c.11744.076.23853.147.36316.21l6.2887 3.644 5.94446-7.978 58.7939-33.9449c4.7829-2.7614 8.6606-9.4772 8.6611-15l.0031-41.59551 4.0961-5.49767-6.3868-3.678558c-.1624-.109603-.332-.207244-.5082-.292663l-.0192-.011048-.001.001343c-1.5398-.73587-3.5897-.543518-5.8402.755796z" fill="url(#k)" fill-rule="evenodd" transform="translate(177.587 .035904)"/><path clip-rule="evenodd" d="m10 .00000977c-5.52288-.00001371-10.00005652 4.47713023-9.99999857 9.99999023l-.00000143 45.3183c-.00008302 5.5228 4.47717 10 9.99991 10h27.47179l11.8681 11.8681c1.5622 1.5622 4.0949 1.5622 5.657.0001l11.8682-11.8682h18.2857c5.5228 0 10-4.4772 10-10v-45.3183c0-5.52286-4.4771-9.99998629-10-10z" fill="url(#l)" fill-rule="evenodd" transform="matrix(.866025 -.5 -.00007539 1 184.194 47.6087)"/><path clip-rule="evenodd" d="m21.7828.621245c1.4349-.828324 3.7613-.828334 5.1962.000014l35.4758 20.480141c1.435.8285 1.435 2.1715 0 2.9998-1.4348.8284-3.7613.8285-5.1962 0l-35.4758-20.48015c-1.4349-.82835-1.4349-2.17137 0-2.999805zm-20.70663 11.348555c1.43493-.8283 3.76137-.8283 5.19626 0l35.47577 20.4802c1.435.8284 1.435 2.1715 0 2.9998-1.4348.8284-3.7613.8284-5.1962 0l-35.47583-20.4802c-1.434907-.8283-1.43488-2.1714 0-2.9998zm15.51653-5.62107c-1.4349-.82835-3.7613-.82834-5.1963-.00001-1.43485.82843-1.43487 2.17145 0 2.9998l25.1556 14.52238c1.4349.8283 3.7614.8283 5.1963 0 1.4349-.8284 1.4349-2.1715-.0001-2.9999z" fill="#d9e7ed" fill-rule="evenodd" transform="matrix(.5 -.8660254 .8660254 .5 185.401 80.4945)"/></svg>