<svg height="260pt" preserveAspectRatio="xMidYMid meet" viewBox="0 0 260 260" width="260pt" xmlns="http://www.w3.org/2000/svg"><path d="m1267 2432c-25-17-77-82-77-96 0-3-34-60-77-128-42-68-101-163-131-213-58-95-84-137-143-232-37-59-395-641-437-711-33-54-52-98-52-121 0-32 19-67 139-251 62-96 125-194 140-218 162-266 203-312 270-312 26 0 166 39 431 120 52 15 264 79 471 140 434 129 450 138 444 235-2 40-11 61-131 313-35 74-64 135-64 137s-29 65-65 140-75 157-86 183c-12 26-44 94-72 152-27 58-62 132-77 165s-49 105-75 160-60 127-75 160-47 101-70 150c-23 50-53 113-65 140-33 71-64 97-122 102-36 3-55-1-76-15zm142-288c12-15 21-30 21-34 0-5 26-64 59-131 32-68 85-182 119-254 33-71 83-179 112-240 28-60 62-132 75-160 13-27 55-117 93-200 39-82 100-213 137-290 66-138 77-177 57-197-8-8-189-66-307-98-16-5-91-26-165-48-476-142-580-172-597-172-10 0-23 8-29 17-11 19-13 9 91 508 25 121 75 360 110 530 35 171 80 389 100 485 53 255 63 292 77 301 20 13 25 11 47-17z" transform="matrix(.1 0 0 -.1 0 260)"/></svg>