<svg height="40" viewBox="0 0 102 40" width="102" xmlns="http://www.w3.org/2000/svg"><g clip-rule="evenodd" fill="#fff" fill-rule="evenodd"><path d="m6.14288 5.51416-1.04438.03531c-.78469.02375-1.36875.16531-1.75219.425-.38375.25969-.57531.65469-.57531 1.18594 0 .76094.43656 1.14157 1.30969 1.14157.62531 0 1.12562-.18 1.5-.54001.37469-.35968.56219-.8375.56219-1.43375zm.79557 4.58394-.52218-1.34527h-.07094c-.45438.57251-.92188.96907-1.40282 1.19032-.48062.22125-1.1075.33185-1.88031.33185-.95032 0-1.69782-.2712-2.24376-.81404-.545627-.54281-.81844-1.31563-.81844-2.31876 0-1.05.367188-1.82437 1.10157-2.32313.735-.49843 1.8425-.77437 3.32344-.8275l1.71688-.05312v-.43375c0-1.00282-.51344-1.50438-1.54-1.50438-.79063 0-1.72001.23875-2.78782.71687l-.893755-1.823125c1.138755-.595939 2.401565-.894065 3.787825-.894065 1.3275 0 2.34531.289376 3.05344.867502.70782.578128 1.06188 1.457188 1.06188 2.637198v6.5934z" transform="translate(92.9392 16.6989)"/><path d="m8.85908 10.0803h-2.69938v-5.77904c0-.71375-.11968-1.24938-.35812-1.60625-.23938-.35688-.61532-.53563-1.12876-.53563-.69 0-1.19156.25375-1.50437.76125-.31282.5075-.46907 1.34219-.46907 2.5047v4.65497h-2.69938v-9.894362h2.06219l.36282 1.265632h.15062c.26531-.45438.64907-.810006 1.15032-1.066569.50156-.256563 1.07687-.385001 1.72594-.385001 1.48094 0 2.48375.484064 3.00907 1.45157h.23875c.26562-.460318.65656-.817193 1.17281-1.070944.51628-.253751 1.09878-.380626 1.74778-.380626 1.121 0 1.9694.287813 2.5444.862815.5753.575315.8628 1.497195.8628 2.765635v6.45185h-2.7081v-5.77904c0-.71375-.1197-1.24938-.3581-1.60625-.2394-.35688-.6153-.53563-1.1288-.53563-.6606 0-1.15466.23625-1.48248.70813-.32719.47219-.49094 1.22125-.49094 2.24782z" transform="translate(76.1985 16.7168)"/><path d="m7.50502 7.14189c0 1.01501-.3525 1.78782-1.05782 2.31876-.705.53094-1.75969.79655-3.16375.79655-.72001 0-1.33313-.0487-1.84063-.1462-.507505-.0972-.982506-.24035-1.4250075-.4291v-2.23032c.5015635.23625 1.0662575.43375 1.6950075.59313.62812.15906 1.18125.23875 1.65906.23875.97938 0 1.46938-.28313 1.46938-.84938 0-.2125-.065-.385-.19469-.51781-.13-.13282-.35406-.28313-.67281-.45157-.31844-.16812-.74344-.36406-1.27438-.58844-.76094-.31843-1.32031-.61343-1.67688-.885-.357186-.27125-.616874-.5825-.778749-.93375-.1625008-.35094-.243751-.78313-.243751-1.29657 0-.87906.340626-1.55875 1.0225-2.039688.68125-.480939 1.64719-.721252 2.89813-.721252 1.19188 0 2.35126.259688 3.47814.778752l-.81407 1.946878c-.49562-.2125-.95906-.38625-1.38969-.52219-.43062-.13562-.87031-.20343-1.31844-.20343-.79656 0-1.195.21531-1.195.64593 0 .24219.12875.45157.385.62844.25688.17688.81875.43969 1.68594.78782.77313.31281 1.33969.60469 1.69938.87594.35969.27156.62531.58406.79657.93812.17125.35407.25656.77594.25656 1.26563" transform="translate(66.8589 16.7175)"/><path d="m.11499 13.7706h2.69938v-9.89438h-2.69938zm-.11499-12.45216c0-.879064.489689-1.31844 1.46907-1.31844.97906 0 1.46906.439376 1.46906 1.31844 0 .41906-.1225.745-.36719.97813-.245.23312-.61219.34937-1.10187.34937-.979381 0-1.46907-.4425-1.46907-1.3275z" transform="translate(62.0469 13.0266)"/><path d="m5.52251 0c.36594 0 .66969.0265626.91157.0796877l-.20344 2.5309423c-.21844-.05875-.48375-.08844-.79656-.08844-.86157 0-1.53251.22125-2.01376.66376-.48063.4425-.72094 1.06219-.72094 1.85875v5.0356h-2.69938v-9.894362h2.04438l.39844 1.663752h.1325c.30687-.55437.72125-1.001563 1.24375-1.340939.52188-.339063 1.08969-.508751 1.70344-.508751" transform="translate(54.2954 16.7168)"/><path d="m2.74268 6.08924h.90281c.84375 0 1.47469-.16657 1.89376-.5.41906-.33344.62843-.81876.62843-1.45594 0-.64282-.17562-1.11782-.52656-1.4247-.35125-.30687-.90125-.46031-1.65063-.46031h-1.24781zm6.19578-2.05361c0 1.39251-.435 2.4572-1.30563 3.1947-.87.73781-2.1075 1.10625-3.7122 1.10625h-1.17719v4.60222h-2.74344v-12.9388h4.13282c1.56969 0 2.76282.337813 3.58001 1.01313.81719.67562 1.22563 1.68313 1.22563 3.0225z" transform="translate(43.6069 13.8583)"/><path d="m32.9083 30.4747-13.7569-29.21323c-.345-.730315-1.065-1.2128165-1.881-1.2575041-.8371-.0487501-1.5872.3550011-2.0103 1.0421941l-14.920014 24.16564c-.462189.7532-.453126 1.6819.02625 2.426l7.293144 11.2975c.43469.6744 1.18781 1.0647 1.97063 1.0647.22187 0 .44499-.0312.66439-.0962l21.17-6.2613c.6485-.1919 1.1788-.6506 1.4563-1.2588.2766-.6084.2722-1.3047-.0125-1.909zm-3.0808 1.2529-17.9622 5.3125c-.5487.1625-1.0747-.3121-.9594-.8656l6.4169-30.731c.12-.57469.9144-.66594 1.165-.13375l11.8813 25.23005c.2241.476-.0316 1.0372-.5416 1.1878z"/></g></svg>