<svg fill="none" height="104" width="99" xmlns="http://www.w3.org/2000/svg"><path clip-rule="evenodd" d="m7.412 80.834-3.888-2.232a5.974 5.974 0 0 1 -1.977-1.831l1.655-1.123c.328.483.768.904 1.318 1.22l3.888 2.232zm-6.852-8.202c.112-.874.42-1.738.937-2.527l2.482-3.778 1.671 1.098-2.48 3.778a3.974 3.974 0 0 0 -.626 1.683zm7.388-12.35 1.672 1.097 4.962-7.557-1.672-1.098-4.962 7.557zm8.932-13.603 1.672 1.097 4.962-7.557-1.672-1.097zm8.932-13.603 1.672 1.098 4.962-7.557-1.672-1.098zm8.932-13.603 1.672 1.098 4.962-7.557-1.672-1.098zm8.932-13.602 1.672 1.097 2.481-3.778c.22-.336.505-.569.815-.714l-.849-1.811a3.965 3.965 0 0 0 -1.639 1.427zm7.53-5.206-.848 1.811c.31.145.594.378.815.714l2.48 3.778 1.673-1.097-2.481-3.779a3.965 3.965 0 0 0 -1.64-1.427zm8.09 11.251-1.672 1.098 4.962 7.557 1.672-1.098-4.963-7.557zm8.931 13.603-1.671 1.098 4.962 7.557 1.672-1.098zm8.932 13.603-1.671 1.097 4.962 7.557 1.672-1.097zm8.932 13.602-1.671 1.098 4.962 7.557 1.672-1.098zm8.932 13.603-1.671 1.098 2.48 3.778c.349.53.552 1.104.626 1.683l1.984-.254a5.974 5.974 0 0 0 -.937-2.527zm2.431 10.444-1.655-1.123a3.973 3.973 0 0 1 -1.318 1.22l-3.889 2.232.996 1.734 3.888-2.232a5.974 5.974 0 0 0 1.977-1.831zm-12.087 7.635-.995-1.734-7.777 4.465.996 1.734zm-13.997 8.037-.996-1.734-7.776 4.465.996 1.734zm-13.997 8.037-.996-1.734-3.888 2.232a5.961 5.961 0 0 1 -1.61.637l.459 1.947a8.013 8.013 0 0 0 2.146-.85zm-9.709 3.082.46-1.947a5.96 5.96 0 0 1 -1.61-.637l-3.889-2.232-.996 1.734 3.888 2.233c.68.39 1.404.673 2.147.849zm-12.256-6.654.996-1.734-7.776-4.465-.996 1.734zm-13.998-8.037.996-1.734-7.777-4.465-.996 1.734zm27.33-73.249v-4.556h2v4.556zm0 16.4v-9.112h2v9.11h-2zm0 16.4v-9.112h2v9.11h-2zm0 16.4v-9.112h2v9.112zm0 16.4v-9.112h2v9.11h-2zm0 11.844v-4.556h2v4.556z" fill="#8fa6b2" fill-rule="evenodd"/></svg>